<?xml version="1.0" encoding="UTF-8" standalone="no"?>
<!-- Created with Inkscape (http://www.inkscape.org/) -->

<svg
   width="200"
   height="200"
   viewBox="0 0 200 200"
   version="1.1"
   id="svg5"
   inkscape:version="1.2.2 (b0a8486541, 2022-12-01)"
   sodipodi:docname="afyako-logo-mini.svg"
   inkscape:export-filename="favicon.png"
   inkscape:export-xdpi="96"
   inkscape:export-ydpi="96"
   xmlns:inkscape="http://www.inkscape.org/namespaces/inkscape"
   xmlns:sodipodi="http://sodipodi.sourceforge.net/DTD/sodipodi-0.dtd"
   xmlns="http://www.w3.org/2000/svg"
   xmlns:svg="http://www.w3.org/2000/svg">
  <sodipodi:namedview
     id="namedview7"
     pagecolor="#ffffff"
     bordercolor="#000000"
     borderopacity="0.25"
     inkscape:showpageshadow="2"
     inkscape:pageopacity="0.0"
     inkscape:pagecheckerboard="0"
     inkscape:deskcolor="#d1d1d1"
     inkscape:document-units="px"
     showgrid="false"
     inkscape:zoom="2.6129805"
     inkscape:cx="47.455387"
     inkscape:cy="91.275078"
     inkscape:window-width="1366"
     inkscape:window-height="699"
     inkscape:window-x="0"
     inkscape:window-y="0"
     inkscape:window-maximized="1"
     inkscape:current-layer="layer1" />
  <defs
     id="defs2">
    <clipPath
       clipPathUnits="userSpaceOnUse"
       id="clipPath1384">
      <path
         d="m 6722.6,2866.36 h -1.73 c -14.34,0.03 -28.97,0.83 -43.68,2.27 l 206.16,119.04 18.36,-31.8 c -25.01,-43.11 -63.81,-72.15 -113.77,-82.98 -20.66,-4.49 -42.64,-6.49 -65.34,-6.53 m -731.39,2.85 c -69.87,0 -134.93,20.02 -173.68,86.53 l 18.45,31.95 200.83,-115.96 c -15.28,-1.59 -30.55,-2.52 -45.6,-2.52 m 553.16,26.39 c -21.58,6.31 -42.21,13.15 -61.28,20.03 -33.36,12.02 -67.93,16.73 -103.1,16.73 -67.62,0 -137.43,-17.42 -205.04,-33.8 v 284.82 h 369.42 V 2895.6"
         id="path1382" />
    </clipPath>
    <linearGradient
       x1="0"
       y1="0"
       x2="1"
       y2="0"
       gradientUnits="userSpaceOnUse"
       gradientTransform="matrix(1e-7,1625.83,1625.83,-1e-7,6359.65,2689.7)"
       spreadMethod="pad"
       id="linearGradient1394">
      <stop
         style="stop-opacity:1;stop-color:#00baba"
         offset="0"
         id="stop1386" />
      <stop
         style="stop-opacity:1;stop-color:#00baba"
         offset="0.543479"
         id="stop1388" />
      <stop
         style="stop-opacity:1;stop-color:#00baba"
         offset="0.80422369"
         id="stop1390" />
      <stop
         style="stop-opacity:1;stop-color:#00baba"
         offset="1"
         id="stop1392" />
    </linearGradient>
  </defs>
  <g
     inkscape:label="Layer 1"
     inkscape:groupmode="layer"
     id="layer1">
    <g
       id="g1678"
       transform="matrix(0.26794172,0,0,0.26794172,-98.531493,-97.86107)">
      <g
         id="g261"
         transform="matrix(3.9267427,0,0,3.9267427,-2203.1992,-1985.2593)">
        <path
           d="m 844.22487,667.53425 -24.63066,-42.656 -45.19734,26.09733 v -52.192 h -49.25599 v 52.18934 l -45.196,-26.09734 -24.62934,42.65867 45.19334,26.09733 -45.196,26.092 24.632,42.65867 45.196,-26.09867 v 52.19333 h 49.25599 v -52.18666 l 45.19734,26.09333 24.628,-42.66 -45.19467,-26.092 45.19733,-26.09733"
           style="fill:#00baba;fill-opacity:1;fill-rule:nonzero;stroke:none;stroke-width:0.133333"
           id="path906" />
        <g
           id="g1378"
           transform="matrix(0.13333333,0,0,-0.13333333,-98.18577,1023.2342)">
          <g
             id="g1380"
             clip-path="url(#clipPath1384)">
            <path
               d="m 6722.6,2866.36 h -1.73 c -14.34,0.03 -28.97,0.83 -43.68,2.27 l 206.16,119.04 18.36,-31.8 c -25.01,-43.11 -63.81,-72.15 -113.77,-82.98 -20.66,-4.49 -42.64,-6.49 -65.34,-6.53 m -731.39,2.85 c -69.87,0 -134.93,20.02 -173.68,86.53 l 18.45,31.95 200.83,-115.96 c -15.28,-1.59 -30.55,-2.52 -45.6,-2.52 m 553.16,26.39 c -21.58,6.31 -42.21,13.15 -61.28,20.03 -33.36,12.02 -67.93,16.73 -103.1,16.73 -67.62,0 -137.43,-17.42 -205.04,-33.8 v 284.82 h 369.42 V 2895.6"
               style="fill:url(#linearGradient1394);fill-opacity:1;fill-rule:nonzero;stroke:none"
               id="path1396" />
          </g>
        </g>
      </g>
    </g>
    <text
       xml:space="preserve"
       style="font-size:25.9996px;fill:#ffffff;fill-opacity:1;stroke-width:2.16665"
       x="53.304764"
       y="107.12388"
       id="text177"><tspan
         sodipodi:role="line"
         id="tspan175"
         x="53.304764"
         y="107.12388"
         style="font-style:normal;font-variant:normal;font-weight:bold;font-stretch:normal;font-family:Montserrat;-inkscape-font-specification:Montserrat;fill:#ffffff;fill-opacity:1;stroke-width:2.16665"><tspan
   style="font-style:normal;font-variant:normal;font-weight:bold;font-stretch:normal;font-family:Montserrat;-inkscape-font-specification:'Montserrat Semi-Bold';fill:#ffffff;fill-opacity:1;stroke-width:2.16665"
   id="tspan268">Afya</tspan>ko</tspan></text>
  </g>
</svg>
